<?xml version="1.0" standalone="no"?>
<!DOCTYPE svg PUBLIC "-//W3C//DTD SVG 20010904//EN"
 "http://www.w3.org/TR/2001/REC-SVG-20010904/DTD/svg10.dtd">
<svg version="1.0" xmlns="http://www.w3.org/2000/svg"
 width="1280.000000pt" height="886.000000pt" viewBox="0 0 1280.000000 886.000000"
 preserveAspectRatio="xMidYMid meet">
<metadata>
Created by potrace 1.15, written by Peter Selinger 2001-2017
</metadata>
<g transform="translate(0.000000,886.000000) scale(0.100000,-0.100000)"
fill="#000000" stroke="none">
<path d="M10 7978 l0 -883 165 -165 165 -166 -165 -164 -166 -164 163 -163
163 -163 -168 -168 -167 -167 0 -1345 0 -1345 167 -167 168 -168 -165 -166
-165 -166 168 -162 169 -162 -166 -161 -166 -162 0 -885 0 -886 878 0 877 0
165 165 165 165 162 -162 163 -163 165 165 165 165 168 -168 167 -167 1340 0
1340 0 168 168 169 167 162 -168 163 -168 160 165 c88 91 164 166 169 166 5 0
80 -74 167 -165 l159 -165 1316 0 1317 0 168 168 167 167 163 -165 162 -165
162 165 163 165 162 -162 163 -163 883 0 882 0 0 881 0 880 -166 162 -166 162
166 164 165 163 -162 159 -162 158 168 168 167 168 0 1345 0 1345 -167 167
-168 168 168 168 167 167 -165 165 -165 165 165 165 165 165 0 878 0 877 -887
0 -888 1 -160 -167 -161 -167 -164 172 -164 172 -168 -168 -168 -168 -168 168
-167 167 -1305 0 -1305 0 -167 -167 -168 -168 -165 165 -165 165 -165 -165
-165 -165 -168 168 -167 167 -1340 0 -1340 0 -167 -167 -168 -168 -160 166
-159 166 -166 -166 -165 -166 -166 168 -166 167 -879 0 -879 0 0 -882z m5895
582 l200 -200 162 162 163 163 165 -165 165 -165 199 199 199 199 1242 5 1242
5 202 -202 201 -201 165 165 165 165 165 -165 165 -165 185 185 185 185 802 0
803 0 0 -792 0 -793 -190 -190 -190 -190 165 -165 165 -165 -165 -165 -165
-166 196 -196 197 -195 4 -1284 5 -1284 -201 -200 -201 -200 162 -162 163
-163 -163 -163 -163 -163 186 -184 185 -184 0 -798 0 -798 -797 0 -798 0 -187
187 -188 188 -165 -165 -165 -165 -163 163 -162 162 -200 -201 -200 -201
-1248 5 -1249 4 -197 197 -196 196 -165 -165 -165 -165 -165 165 -165 165
-200 -201 -200 -201 -1272 4 -1273 3 -200 200 -200 200 -165 -165 -165 -165
-163 163 -162 162 -190 -190 -190 -190 -792 0 -793 0 0 803 0 802 185 185 185
185 -162 162 -163 163 165 165 165 165 -199 199 -199 199 -4 1284 -5 1283 201
200 201 200 -163 163 -162 163 163 157 c90 86 163 162 162 167 0 6 -83 93
-185 195 l-185 185 2 795 3 795 794 3 795 2 188 -187 188 -187 88 84 c48 47
122 119 165 160 l77 75 163 -163 162 -162 195 195 194 195 191 3 c104 1 681 3
1280 5 l1090 2 200 -200z"/>
<path d="M3025 8470 l-190 -190 190 -190 190 -190 1215 0 1215 0 190 191 190
191 -194 189 -194 189 -1211 0 -1211 0 -190 -190z"/>
<path d="M7032 8467 l-192 -192 188 -188 187 -187 1185 0 1185 0 190 190 190
190 -190 190 -190 190 -1180 0 -1180 0 -193 -193z"/>
<path d="M250 7902 l0 -717 170 -170 170 -170 170 170 170 170 0 377 0 378
373 0 372 0 170 170 170 170 -170 170 -170 170 -712 0 -713 0 0 -718z"/>
<path d="M10960 8450 l-175 -170 170 -170 170 -170 377 0 378 0 0 -378 0 -377
170 -170 169 -169 171 169 170 169 -2 716 -3 715 -710 3 -710 2 -175 -170z"/>
<path d="M2306 8401 l-119 -120 71 -78 c38 -43 92 -99 119 -125 l48 -48 123
123 122 122 -123 123 -122 122 -119 -119z"/>
<path d="M6305 8400 l-120 -120 122 -122 121 -121 126 119 125 119 -122 123
c-67 67 -124 122 -127 122 -3 0 -59 -54 -125 -120z"/>
<path d="M10245 8400 l-120 -120 125 -125 125 -125 122 122 123 123 -122 122
c-68 68 -125 123 -128 123 -3 0 -59 -54 -125 -120z"/>
<path d="M2590 8035 l-165 -165 -162 162 -163 163 -188 -188 -187 -187 -338 0
-337 0 0 -338 0 -337 -190 -190 -190 -190 163 -163 162 -163 -166 -163 -167
-163 199 -199 199 -199 0 -1285 0 -1285 -197 -197 -198 -198 163 -163 162
-162 -162 -163 -163 -162 187 -187 188 -188 6 -342 7 -343 331 0 331 0 185
-185 c102 -102 189 -185 195 -185 6 0 82 72 170 160 l160 160 162 -162 163
-163 198 198 197 197 1275 0 1275 0 200 -200 200 -200 165 165 165 165 160
-160 c88 -88 164 -160 170 -160 6 0 98 88 205 195 l195 195 1245 0 1245 0 200
-200 200 -200 165 165 165 165 162 -162 163 -163 188 188 187 187 131 0 c72 0
226 3 342 7 l212 6 0 336 0 336 185 185 185 185 -160 160 -160 160 165 165
166 166 -201 197 -200 197 0 1282 0 1283 197 197 197 197 -20 23 c-10 12 -81
85 -156 162 -75 78 -137 145 -138 149 -1 5 67 81 152 169 84 88 154 163 156
167 1 3 -81 89 -183 191 l-185 185 0 331 0 331 -202 6 c-112 4 -266 7 -343 7
l-140 0 -187 187 -188 188 -165 -165 -165 -164 -161 168 -162 168 -201 -201
-201 -201 -1245 0 -1245 0 -197 197 -198 198 -166 -165 -166 -165 -161 168
-162 168 -200 -201 -200 -200 -1275 0 -1275 0 -200 200 -200 200 -165 -165z
m0 -170 l165 165 165 -165 165 -165 1345 0 1345 -1 162 168 162 168 166 -166
165 -165 162 163 162 163 166 -165 165 -165 1317 0 1316 0 162 167 161 167
168 -168 167 -167 163 167 163 167 167 -167 166 -166 305 0 305 0 -3 -302 -3
-301 166 -166 165 -166 -165 -165 -165 -165 165 -165 165 -165 -165 -165 -165
-165 0 -1350 0 -1350 168 -168 c118 -119 163 -170 154 -176 -7 -4 -83 -77
-168 -161 l-155 -154 163 -163 163 -163 -163 -163 -162 -162 0 -303 0 -302
-306 0 -305 0 -164 -167 -165 -168 -162 168 -163 169 -164 -167 -165 -166
-165 165 -166 166 -1315 0 -1315 0 -165 -165 -165 -165 -165 165 -166 166
-164 -166 -164 -166 -165 165 -166 166 -1340 0 -1340 0 -168 -167 -168 -168
-164 166 -165 165 -162 -163 -163 -163 -160 160 -160 160 -308 0 -307 0 0 308
0 307 -165 165 -165 165 166 166 166 166 -166 159 -166 159 165 170 164 170 1
1352 0 1351 -167 162 -168 161 170 165 170 165 -169 162 -168 162 163 160 164
159 5 311 5 310 305 2 304 2 160 161 161 160 165 -165 165 -165 165 165z"/>
<path d="M462 6557 l-122 -122 120 -120 120 -120 122 120 c67 66 125 121 127
123 6 3 -231 242 -239 242 -3 0 -60 -55 -128 -123z"/>
<path d="M12093 6558 l-123 -123 122 -122 c67 -68 124 -123 128 -123 4 0 60
55 125 121 l117 121 -53 57 c-133 139 -184 191 -189 191 -3 0 -60 -55 -127
-122z"/>
<path d="M387 5841 l-187 -188 0 -1219 0 -1219 193 -193 193 -192 187 188 187
189 0 1224 0 1224 -188 188 c-103 103 -190 187 -193 187 -3 0 -89 -85 -192
-189z"/>
<path d="M12027 5832 l-187 -187 0 -1220 0 -1220 190 -190 190 -190 190 190
190 190 0 1215 0 1215 -192 193 c-106 105 -192 192 -193 192 0 0 -85 -84 -188
-188z"/>
<path d="M462 2547 l-122 -122 122 -122 123 -123 123 122 123 122 -123 123
-123 123 -123 -123z"/>
<path d="M12095 2540 l-121 -121 121 -119 120 -120 115 115 c63 63 122 115
130 115 8 0 -41 56 -110 125 -69 69 -127 125 -130 125 -3 0 -59 -54 -125 -120z"/>
<path d="M408 1836 l-168 -172 0 -479 c0 -264 3 -585 7 -712 l6 -233 711 0
711 0 170 170 170 170 -170 170 -170 170 -377 0 -378 0 0 378 0 377 -168 168
c-92 92 -169 166 -172 166 -3 -1 -80 -79 -172 -173z"/>
<path d="M12048 1843 l-168 -168 -2 -375 -3 -375 -380 -3 -380 -2 -168 -168
-167 -167 172 -173 173 -173 711 2 711 3 6 480 c4 263 7 583 7 710 l0 231
-173 173 -172 172 -167 -167z"/>
<path d="M3017 772 l-187 -187 192 -192 193 -193 1210 0 1210 0 190 190 190
190 -190 190 -190 190 -1215 0 -1215 -1 -188 -187z"/>
<path d="M7025 770 l-190 -190 190 -190 190 -190 1185 0 1185 0 190 190 190
190 -190 190 -190 190 -1185 0 -1185 0 -190 -190z"/>
<path d="M2298 703 l-123 -124 125 -119 125 -119 123 122 123 122 -68 63 c-37
35 -94 89 -125 121 l-57 58 -123 -124z"/>
<path d="M10252 700 l-122 -124 122 -121 123 -121 122 126 123 126 -123 119
-122 120 -123 -125z"/>
<path d="M6302 698 l-124 -120 124 -118 123 -118 122 121 123 122 -98 98 c-53
54 -108 107 -122 117 l-25 18 -123 -120z"/>
</g>
</svg>
